<svg width="98" height="114" viewBox="0 0 98 114" fill="none" xmlns="http://www.w3.org/2000/svg">
<path d="M86.1211 13.1016H11.8799C10.6789 13.1016 9.69629 14.0842 9.69629 15.2851V82.9757C9.69629 85.3776 11.6615 87.3428 14.0634 87.3428H19.1948C21.1054 87.3428 22.7431 88.8167 22.9615 90.7273C24.5991 103.61 35.6261 113.546 48.9459 113.546C62.2656 113.546 73.2927 103.61 74.9303 90.7273C75.2033 88.8167 76.7864 87.3428 78.697 87.3428H83.8284C86.2303 87.3428 88.1955 85.3776 88.1955 82.9757V15.2851C88.3047 14.0842 87.3221 13.1016 86.1211 13.1016ZM83.9375 82.9757H78.8062C74.712 82.9757 71.2183 86.0873 70.6724 90.1814C69.2531 100.99 59.9729 109.178 49.0005 109.178C38.0281 109.178 28.7479 100.99 27.3286 90.1814C26.7827 86.0873 23.289 82.9757 19.1948 82.9757H14.0634V17.4687H83.9375V82.9757Z" fill="#40A2CE"/>
<path d="M29.0201 10.9178H34.0423C35.0795 10.9178 35.8983 10.099 35.8983 9.0618V1.85603C35.8983 0.818837 35.0795 0 34.0423 0H29.0201C27.9829 0 27.1641 0.818837 27.1641 1.85603V9.0618C27.1641 10.099 27.9829 10.9178 29.0201 10.9178ZM29.3476 2.18357H33.7148V8.73426H29.3476V2.18357Z" fill="#40A2CE"/>
<path d="M63.9571 10.9178H68.9793C70.0165 10.9178 70.8353 10.099 70.8353 9.0618V1.85603C70.8353 0.818837 70.0165 0 68.9793 0H63.9571C62.9199 0 62.1011 0.818837 62.1011 1.85603V9.0618C62.1011 10.099 62.9199 10.9178 63.9571 10.9178ZM64.2846 2.18357H68.6518V8.73426H64.2846V2.18357Z" fill="#40A2CE"/>
<path d="M25.5265 3.27539H3.14499C1.94403 3.27539 0.961426 4.258 0.961426 5.45896C0.961426 6.65992 1.94403 7.64252 3.14499 7.64252H25.5265V3.27539Z" fill="#40A2CE"/>
<path d="M59.9182 3.27539H37.5366V7.64252H59.9182V3.27539Z" fill="#40A2CE"/>
<path d="M94.8552 3.27539H71.9277V7.64252H94.8552C96.0561 7.64252 97.0387 6.65992 97.0387 5.45896C97.0387 4.258 96.0561 3.27539 94.8552 3.27539Z" fill="#40A2CE"/>
<path d="M59.3723 76.6977C59.536 75.3876 58.4988 74.2412 57.1887 74.2412H40.8119C39.5018 74.2412 38.4646 75.3876 38.6284 76.6977C39.2289 81.5016 41.4124 91.7097 49.0003 91.7097C52.494 91.7097 54.7868 89.5808 56.3699 86.7967C57.1341 86.7967 60.1365 86.6875 61.6104 85.4866L64.3399 81.3378C64.3399 79.5364 62.2655 78.0625 59.9727 78.0625H59.1539C59.2631 77.5711 59.3177 77.1344 59.3723 76.6977ZM59.9727 80.246C60.9008 80.246 61.6104 80.6281 61.938 81.0103L60.0273 83.9581C59.536 84.231 58.7172 84.3948 57.8438 84.5586L59.7544 80.3006H59.9727V80.246ZM49.0003 89.5262C46.5438 89.5262 44.6332 88.0523 43.1593 85.0499C41.74 82.2112 41.0849 78.8267 40.8119 76.4248H57.1887C56.6428 78.7721 56.2607 82.2112 54.8414 85.0499C53.3129 88.0523 51.4568 89.5262 49.0003 89.5262Z" fill="#40A2CE"/>
<path d="M44.1415 62.7228C43.9231 62.9412 43.541 63.2687 43.1589 63.7054C42.7768 64.1421 42.5038 64.8518 42.4492 65.4523C42.4492 65.616 42.4492 65.7252 42.4492 65.9436C42.4492 66.0528 42.4492 66.1619 42.5038 66.2711C42.5584 66.4895 42.5584 66.7624 42.613 66.9808C42.7222 67.4175 42.8313 67.7996 42.9951 68.1271C43.2681 68.7822 43.541 69.3281 43.8139 69.6556C43.9231 69.8194 44.0323 69.9832 44.0869 70.0378C44.1415 70.1469 44.1961 70.2015 44.1961 70.2015C44.3052 70.3653 44.5236 70.4745 44.742 70.4199C45.0149 70.3653 45.2333 70.0378 45.1787 69.7648V69.7102C45.1787 69.7102 45.1241 69.4919 45.0695 69.1643C45.0149 68.7822 44.9057 68.2909 44.7966 67.6904C44.742 67.3629 44.6874 67.09 44.6874 66.7624C44.6874 66.5987 44.6874 66.4349 44.6874 66.3257C44.6874 66.2165 44.6874 66.1073 44.6874 65.9982C44.6874 65.9982 44.6874 65.889 44.6874 65.8344C44.742 65.616 44.7966 65.5069 45.0149 65.2885C45.1787 65.0702 45.5062 64.7972 45.8883 64.4151C46.2705 64.033 46.6526 63.4325 46.8164 62.7774C46.9801 62.0132 46.8709 61.5764 46.8164 61.1397C46.6526 60.2117 46.4342 59.4475 46.1613 58.7924C45.9429 58.1373 45.67 57.646 45.5062 57.2639C45.3424 56.8818 45.2333 56.718 45.2333 56.718C45.1241 56.5542 44.9057 56.4451 44.6874 56.4451C44.3598 56.4997 44.1961 56.7726 44.2507 57.1001C44.2507 57.1001 44.3053 57.3185 44.3598 57.7006C44.4144 58.0827 44.469 58.6286 44.5782 59.2291C44.6874 59.8842 44.742 60.5938 44.7966 61.3581C44.7966 61.6856 44.7966 62.1769 44.742 62.2315C44.5236 62.2861 44.4144 62.4499 44.1415 62.7228Z" fill="#40A2CE"/>
<path d="M49.4914 56.6089C49.3822 56.4451 49.1638 56.3359 48.9455 56.3359C48.6179 56.3905 48.4542 56.6635 48.5088 56.991C48.5088 56.991 48.5634 57.2094 48.6179 57.5915C48.6725 57.9736 48.7271 58.5195 48.8363 59.12C48.9455 59.7751 49.0001 60.4847 49.0547 61.249C49.0547 61.5765 49.0547 62.0678 49.0001 62.1224C48.9455 62.2862 48.8363 62.4499 48.5634 62.7229C48.345 62.9412 47.9629 63.2688 47.5808 63.7055C47.1986 64.1422 46.9257 64.8518 46.8711 65.4523C46.8711 65.6161 46.8711 65.7253 46.8711 65.9436C46.8711 66.0528 46.8711 66.162 46.9257 66.2712C46.9803 66.4895 46.9803 66.7625 47.0349 66.9808C47.144 67.4175 47.2532 67.7997 47.417 68.1272C47.6899 68.7823 47.9629 69.3282 48.2358 69.6557C48.345 69.8195 48.4542 69.9832 48.5088 70.0378C48.5634 70.147 48.6179 70.2016 48.6179 70.2016C48.7271 70.3654 48.9455 70.4745 49.1638 70.4199C49.4368 70.3654 49.6551 70.0378 49.6006 69.7649V69.7103C49.6006 69.7103 49.546 69.4919 49.4914 69.1644C49.4368 68.7823 49.3276 68.291 49.2184 67.6905C49.1638 67.3629 49.1092 67.09 49.1092 66.7625C49.1092 66.5987 49.1092 66.4349 49.1092 66.3258C49.1092 66.2166 49.1092 66.1074 49.1092 65.9982C49.1092 65.9982 49.1092 65.889 49.1092 65.8345C49.1638 65.6161 49.2184 65.5069 49.4368 65.2886C49.6006 65.0702 49.9281 64.7973 50.3102 64.4151C50.6923 64.033 51.0745 63.4325 51.2382 62.7775C51.402 62.0132 51.2928 61.5765 51.2382 61.1398C51.0745 60.2118 50.8561 59.4475 50.5832 58.7924C50.3648 58.1374 50.0919 57.6461 49.9281 57.264C49.6551 56.7727 49.4914 56.6089 49.4914 56.6089Z" fill="#40A2CE"/>
<path d="M52.8759 62.7228C52.6575 62.9412 52.2754 63.2687 51.8933 63.7054C51.5111 64.1421 51.2382 64.8518 51.1836 65.4523C51.1836 65.616 51.1836 65.7252 51.1836 65.9436C51.1836 66.0528 51.1836 66.1619 51.2382 66.2711C51.2928 66.4895 51.2928 66.7624 51.3474 66.9808C51.4565 67.4175 51.5657 67.7996 51.7295 68.1271C52.0024 68.7822 52.2754 69.3281 52.5483 69.6556C52.6575 69.8194 52.7667 69.9832 52.8213 70.0378C52.8759 70.1469 52.9304 70.2015 52.9304 70.2015C53.0396 70.3653 53.258 70.4745 53.4763 70.4199C53.7493 70.3653 53.9676 70.0378 53.9131 69.7648V69.7102C53.9131 69.7102 53.8585 69.4919 53.8039 69.1643C53.7493 68.7822 53.6401 68.2909 53.5309 67.6904C53.4763 67.3629 53.4218 67.09 53.4218 66.7624C53.4218 66.5987 53.4218 66.4349 53.4218 66.3257C53.4218 66.2165 53.4218 66.1073 53.4218 65.9982C53.4218 65.9982 53.4218 65.889 53.4218 65.8344C53.4763 65.616 53.5309 65.5069 53.7493 65.2885C53.913 65.0702 54.2406 64.7972 54.6227 64.4151C55.0048 64.033 55.387 63.4325 55.5507 62.7774C55.7145 62.0132 55.6053 61.5764 55.5507 61.1397C55.387 60.2117 55.1686 59.4475 54.8957 58.7924C54.6773 58.1373 54.4044 57.646 54.2406 57.2639C54.0768 56.8818 53.9676 56.718 53.9676 56.718C53.8585 56.5542 53.6401 56.4451 53.4218 56.4451C53.0942 56.4997 52.9304 56.7726 52.985 57.1001C52.985 57.1001 53.0396 57.3185 53.0942 57.7006C53.1488 58.0827 53.2034 58.6286 53.3126 59.2291C53.4217 59.8842 53.4763 60.5938 53.5309 61.3581C53.5309 61.6856 53.5309 62.1769 53.4763 62.2315C53.258 62.2861 53.1488 62.4499 52.8759 62.7228Z" fill="#40A2CE"/>
<path d="M23.562 45.8551C25.3635 45.8551 26.9466 45.4729 28.3113 44.7087L27.6016 43.071C26.5099 43.4531 25.3089 43.6715 23.9442 43.6715C23.0707 43.6715 22.4157 43.344 21.9244 42.6343C21.4331 41.9246 21.2693 40.8329 21.2693 39.1952C21.2693 37.6121 21.4877 36.4657 21.979 35.8107C22.4703 35.1556 23.0707 34.8281 23.835 34.8281C24.5992 34.8281 25.1451 34.8826 25.5273 35.0464C25.5818 35.7561 25.7456 36.5749 25.9094 36.5749H27.7108C27.8746 36.5749 28.0384 35.8652 28.0929 35.3739C28.2021 34.8826 28.2567 34.5551 28.2567 34.3367C28.2567 34.1184 28.2567 34.0092 28.2567 33.9C27.1649 33.1358 25.5818 32.7537 24.1079 32.7537C22.3065 32.7537 20.8872 33.2996 19.9046 34.3913C18.922 35.4831 18.4307 37.1754 18.4307 39.4135C18.4307 41.7063 18.8128 43.344 19.6316 44.3266C20.4505 45.3638 21.7606 45.8551 23.562 45.8551Z" fill="#40A2CE"/>
<path d="M34.2613 45.8551C36.0627 45.8551 37.482 45.3092 38.4646 44.1628C39.4472 43.0164 39.9385 41.3242 39.9385 39.086C39.9385 36.8478 39.5018 35.2102 38.5738 34.2276C37.6458 33.245 36.3356 32.7537 34.5342 32.7537C32.7328 32.7537 31.3134 33.2996 30.3308 34.3913C29.3482 35.4831 28.8569 37.1754 28.8569 39.4135C28.8569 41.6517 29.2936 43.344 30.2217 44.3266C31.0951 45.3638 32.4598 45.8551 34.2613 45.8551ZM32.4052 35.8107C32.8419 35.1556 33.497 34.8281 34.3704 34.8281C36.1719 34.8281 37.0999 36.302 37.0999 39.3044C37.0999 40.8874 36.8815 42.0338 36.3902 42.7435C35.8989 43.4531 35.2439 43.7807 34.425 43.7807C33.6062 43.7807 32.8965 43.3985 32.4598 42.6889C31.9685 41.9792 31.7502 40.7783 31.7502 39.1952C31.6956 37.5575 31.9139 36.4657 32.4052 35.8107Z" fill="#40A2CE"/>
<path d="M40.8115 44.2174L40.9753 45.8551H46.2159L46.4342 44.2174C46.0521 43.8899 45.1787 43.5623 44.6328 43.3985V40.3961H47.1985C47.3622 40.942 47.5806 40.9966 47.7443 41.1604L48.9999 40.942V37.6667L47.7443 37.5029C47.5806 37.6667 47.3622 37.6667 47.1985 38.2126H44.6328V34.9372H47.526C47.6898 35.4831 47.9081 36.0836 48.1811 36.302L49.5458 36.1382V32.7537H40.9753L40.8115 34.3913C40.9753 34.6097 41.3574 34.9372 41.9033 35.101V43.5623C41.3574 43.7261 40.9753 44.0536 40.8115 44.2174Z" fill="#40A2CE"/>
<path d="M50.6377 44.2174L50.8015 45.8551H56.042L56.2604 44.2174C55.8783 43.8899 55.0048 43.5623 54.4589 43.3985V40.3961H57.0246C57.1884 40.942 57.4067 40.9966 57.5705 41.1604L58.8261 40.942V37.6667L57.5705 37.5029C57.4067 37.6667 57.1884 37.6667 57.0246 38.2126H54.4589V34.9372H57.3522C57.5159 35.4831 57.7343 36.0836 58.0072 36.302L59.372 36.1382V32.7537H50.8015L50.6377 34.3913C50.8015 34.6097 51.1836 34.9372 51.7295 35.101V43.5623C51.1836 43.7261 50.8015 44.0536 50.6377 44.2174Z" fill="#40A2CE"/>
<path d="M60.4639 44.2174L60.6276 45.8551H69.1981V42.4705L67.9426 42.3068C67.615 42.5797 67.5605 43.1256 67.3967 43.6715H64.2851V40.3961H66.8508C67.0146 40.3961 67.2329 40.942 67.3967 41.0512L68.6522 40.7783V37.4483L67.3967 37.3392C67.2329 37.5029 67.0146 37.6121 66.8508 38.158H64.2851V34.8826H67.1783C67.3421 35.4285 67.5605 36.029 67.8334 36.2474L69.1981 36.0836V32.7537H60.6276L60.4639 34.3913C60.6276 34.6097 61.0098 34.9372 61.5557 35.101V43.5623C61.0098 43.7261 60.6276 44.0536 60.4639 44.2174Z" fill="#40A2CE"/>
<path d="M70.4536 44.2174L70.7811 45.8551H79.57V42.4705L78.1507 42.3068C77.8231 42.5797 77.6048 43.1256 77.441 43.6715H74.1111V40.3961H77.0043C77.1681 40.3961 77.2227 40.942 77.3864 41.0512L78.4782 40.7783V37.4483L77.3864 37.3392C77.2227 37.5029 77.1681 37.6121 77.0043 38.158H74.1111V34.8826H77.3318C77.4956 35.4285 77.8231 36.029 78.0961 36.2474L79.57 36.0836V32.7537H70.7811L70.4536 34.3913C70.6174 34.6097 70.8357 34.9372 71.3816 35.101V43.5623C70.8357 43.7261 70.6174 44.0536 70.4536 44.2174Z" fill="#40A2CE"/>
</svg>
