<svg width="84" height="84" viewBox="0 0 84 84" fill="none" xmlns="http://www.w3.org/2000/svg">
<path d="M84 27V12C84 5.3625 78.6375 0 72 0H12C5.3625 0 0 5.3625 0 12V27C0 33.6375 5.3625 39 12 39H15.1875C15.1875 39.1125 15.1875 39.225 15.225 39.375L23.9625 75H3C1.35 75 0 76.35 0 78V82.5C0 83.325 0.675 84 1.5 84H82.5C83.325 84 84 83.325 84 82.5V78C84 76.35 82.65 75 81 75H60.0375L68.9625 39.375C69 39.2625 69 39.15 69 39H72C78.6375 39 84 33.6375 84 27ZM3 27V12C3 7.05 7.05 3 12 3H72C76.95 3 81 7.05 81 12V27C81 31.95 76.95 36 72 36H54.75H29.25H12C7.05 36 3 31.95 3 27ZM48 47.025L44.25 47.25C43.0125 47.25 42 48.2625 42 49.5C42 50.7375 43.0125 51.75 44.25 51.75L48 51.975V54H36V45H48V47.025ZM57.75 48C58.0125 48.1125 58.5 48.9 58.5 49.5C58.5 50.1 58.0125 50.8875 57.75 51L44.3625 50.25H44.325H44.25C43.8375 50.25 43.5 49.9125 43.5 49.5C43.5 49.0875 43.8375 48.75 44.25 48.75H44.2875H44.325L57.75 48ZM48 42H36H30.75V39H53.25V42H48ZM81 81H3V78H81V81ZM57.0375 74.625C57 74.7375 57 74.85 57 75H27C27 74.8875 27 74.775 26.9625 74.625L18.225 39H27.75V43.5C27.75 44.325 28.425 45 29.25 45H33V54C33 55.65 34.35 57 36 57H48C49.65 57 51 55.65 51 54V52.125L57.75 52.5C58.9875 52.5 60 50.7375 60 49.5C60 48.2625 58.9875 46.5 57.75 46.5L51 46.875V45H54.75C55.575 45 56.25 44.325 56.25 43.5V39H65.9625L57.0375 74.625Z" fill="#40A2CE"/>
<path d="M42 33C48.6375 33 54 27.6375 54 21C54 14.3625 48.6375 9 42 9C35.3625 9 30 14.3625 30 21C30 27.6375 35.3625 33 42 33ZM42 12C46.95 12 51 16.05 51 21C51 25.95 46.95 30 42 30C37.05 30 33 25.95 33 21C33 16.05 37.05 12 42 12Z" fill="#40A2CE"/>
<path d="M42 17.625C42.4125 17.625 42.75 17.2875 42.75 16.875V15.375C42.75 14.9625 42.4125 14.625 42 14.625C41.5875 14.625 41.25 14.9625 41.25 15.375V16.875C41.25 17.2875 41.5875 17.625 42 17.625Z" fill="#40A2CE"/>
<path d="M45.375 21C45.375 21.4125 45.7125 21.75 46.125 21.75H47.625C48.0375 21.75 48.375 21.4125 48.375 21C48.375 20.5875 48.0375 20.25 47.625 20.25H46.125C45.7125 20.25 45.375 20.5875 45.375 21Z" fill="#40A2CE"/>
<path d="M36.375 21.75H37.875C38.2875 21.75 38.625 21.4125 38.625 21C38.625 20.5875 38.2875 20.25 37.875 20.25H36.375C35.9625 20.25 35.625 20.5875 35.625 21C35.625 21.4125 35.9625 21.75 36.375 21.75Z" fill="#40A2CE"/>
<path d="M38.4752 18.5625C38.6252 18.7125 38.8127 18.7875 39.0002 18.7875C39.1877 18.7875 39.3752 18.7125 39.5252 18.5625C39.8252 18.2625 39.8252 17.8125 39.5252 17.5125L38.4752 16.4625C38.1752 16.1625 37.7252 16.1625 37.4252 16.4625C37.1252 16.7625 37.1252 17.2125 37.4252 17.5125L38.4752 18.5625Z" fill="#40A2CE"/>
<path d="M45.525 23.4375C45.225 23.1375 44.775 23.1375 44.475 23.4375C44.175 23.7375 44.175 24.1875 44.475 24.4875L45.525 25.5375C45.675 25.6875 45.8625 25.7625 46.05 25.7625C46.2375 25.7625 46.425 25.6875 46.575 25.5375C46.875 25.2375 46.875 24.7875 46.575 24.4875L45.525 23.4375Z" fill="#40A2CE"/>
<path d="M38.4752 23.4375L37.4252 24.4875C37.1252 24.7875 37.1252 25.2375 37.4252 25.5375C37.5752 25.6875 37.7627 25.7625 37.9502 25.7625C38.1377 25.7625 38.3252 25.6875 38.4752 25.5375L39.5252 24.4875C39.8252 24.1875 39.8252 23.7375 39.5252 23.4375C39.2627 23.175 38.7752 23.175 38.4752 23.4375Z" fill="#40A2CE"/>
<path d="M42.0001 22.5C42.8251 22.5 43.5001 21.825 43.5001 21C43.5001 20.85 43.4626 20.7375 43.4626 20.625L46.5751 17.5125C46.8751 17.2125 46.8751 16.7625 46.5751 16.4625C46.2751 16.1625 45.8251 16.1625 45.5251 16.4625L42.4126 19.575C42.3001 19.5375 42.1501 19.5375 42.0376 19.5375C41.2126 19.5375 40.5376 20.2125 40.5376 21.0375C40.5001 21.825 41.1751 22.5 42.0001 22.5Z" fill="#40A2CE"/>
<path d="M61.5 24H64.5C65.325 24 66 23.325 66 22.5V19.5C66 18.675 65.325 18 64.5 18H61.5C60.675 18 60 18.675 60 19.5V22.5C60 23.325 60.675 24 61.5 24ZM61.5 21H64.5V22.5H61.5V21Z" fill="#40A2CE"/>
<path d="M70.5 24H73.5C74.325 24 75 23.325 75 22.5V19.5C75 18.675 74.325 18 73.5 18H70.5C69.675 18 69 18.675 69 19.5V22.5C69 23.325 69.675 24 70.5 24ZM70.5 19.5H73.5V21H70.5V19.5Z" fill="#40A2CE"/>
<path d="M42 60C42 60 39 62.85 39 64.5C39 66.15 40.35 67.5 42 67.5C43.65 67.5 45 66.15 45 64.5C45 62.85 42 60 42 60Z" fill="#40A2CE"/>
</svg>
