<svg width="224" height="47" viewBox="0 0 224 47" fill="none" xmlns="http://www.w3.org/2000/svg">
<path d="M10.0926 41.4311C11.1858 41.4569 12.2757 41.3005 13.3175 40.9683V37.9823H8.27117V34.2051H16.9156V43.5213C14.7441 44.5687 12.3533 45.0806 9.94332 45.0143C4.31474 45.0293 0 41.2818 0 34.8769C0 29.6514 3.28458 24.7246 9.22668 24.7246C10.8242 24.6782 12.4069 25.0423 13.8236 25.782C15.2403 26.5217 16.4437 27.6124 17.3187 28.9497L14.5567 31.5326C12.9592 29.2185 11.4214 28.3675 9.2864 28.3675C5.83759 28.3675 3.82206 31.6073 3.82206 34.8918C3.77265 35.7408 3.89894 36.5908 4.19304 37.3887C4.48714 38.1866 4.94272 38.9152 5.53127 39.529C6.11983 40.1427 6.8287 40.6285 7.61356 40.9558C8.39841 41.2831 9.24236 41.4449 10.0926 41.4311V41.4311Z" fill="white"/>
<path d="M34.2193 44.656L29.4119 37.5494H26.4259V44.656H22.7681V25.0978H30.5764C34.5776 25.0978 37.474 27.2776 37.474 31.0698C37.4979 32.3594 37.1036 33.6222 36.35 34.6691C35.5965 35.716 34.5242 36.4908 33.2937 36.8775L38.6983 44.656H34.2193ZM30.5167 28.8452H26.3662V33.7721H30.3375C32.5173 33.7721 33.652 32.9062 33.652 31.0996C33.652 29.5619 32.5472 28.8452 30.5167 28.8452Z" fill="white"/>
<path d="M40.9531 34.847C40.9531 29.4723 44.7005 24.7245 50.4187 24.7245C56.1368 24.7245 59.8395 29.532 59.8395 34.9067C59.8395 40.2815 56.0921 45.0292 50.4187 45.0292C44.7453 45.0292 40.9531 40.2069 40.9531 34.847ZM56.0025 34.847C56.0025 31.3684 54.0019 28.2629 50.4187 28.2629C46.8355 28.2629 44.7901 31.3534 44.7901 34.847C44.7901 38.3406 46.8206 41.4311 50.4187 41.4311C54.0168 41.4311 56.0025 38.3854 56.0025 34.9067V34.847Z" fill="white"/>
<path d="M63.8999 37.4598V25.0978H67.498V37.4896C67.498 40.177 69.6628 41.4311 72.4547 41.4311C75.2466 41.4311 77.4413 40.177 77.4413 37.4896V25.0978H81.0394V37.4598C81.0394 42.4165 77.4712 45.0292 72.4547 45.0292C67.4383 45.0292 63.8999 42.3866 63.8999 37.4598Z" fill="white"/>
<path d="M98.9707 44.656L90.0127 30.8458V44.656H86.4893V25.0978H91.1922L100.15 39.0722V25.0978H103.733V44.656H98.9707Z" fill="white"/>
<path d="M116.364 44.656H109.123V25.0978H116.364C123.246 25.0978 126.456 29.5768 126.456 34.847C126.456 40.1173 123.067 44.656 116.364 44.656ZM116.229 28.8751H112.721V40.819H116.229C120.514 40.819 122.634 38.2063 122.634 34.847C122.634 31.4878 120.23 28.8751 116.229 28.8751Z" fill="white"/>
<path d="M187.34 37.4598V25.0978H190.938V37.4896C190.938 40.177 193.118 41.4311 195.895 41.4311C198.672 41.4311 200.897 40.177 200.897 37.4896V25.0978H204.54V37.4598C204.54 42.4165 200.971 45.0292 195.955 45.0292C190.938 45.0292 187.34 42.3866 187.34 37.4598Z" fill="white"/>
<path d="M216.559 38.3257H212.96V44.656H209.362V25.0978H216.559C221.038 25.0978 223.949 27.8598 223.949 31.652C223.949 35.4442 221.217 38.3257 216.559 38.3257ZM216.559 28.8751H213.02V34.5484H216.484C219.037 34.5484 220.186 33.4287 220.186 31.7118C220.186 29.9948 218.873 28.8751 216.484 28.8751H216.559Z" fill="white"/>
<path d="M176.352 19.7679H174.322C174.62 17.9165 174.814 16.3041 174.934 15.0649C174.97 14.7195 174.932 14.3704 174.823 14.0405C174.715 13.7107 174.538 13.4075 174.304 13.1509C174.07 12.8943 173.784 12.6901 173.465 12.5517C173.147 12.4133 172.803 12.3437 172.455 12.3477H135.698C135.353 12.3506 135.012 12.4247 134.697 12.5655C134.381 12.7062 134.099 12.9105 133.866 13.1656C133.633 13.4206 133.456 13.721 133.345 14.0478C133.233 14.3746 133.191 14.7209 133.22 15.0649C134.026 23.2017 137.699 47 154.122 47C163.079 47 168.171 39.9083 171.171 32.1448H173.934C174.665 32.207 175.401 32.0674 176.059 31.741C176.717 31.4145 177.273 30.9139 177.666 30.2934C179.166 28.5484 180.038 26.3514 180.144 24.0527C180.07 21.7237 178.771 19.7679 176.352 19.7679ZM162.467 41.3117C160.164 43.3776 157.178 44.5202 154.084 44.5202C150.99 44.5202 148.005 43.3776 145.701 41.3117C143.286 38.9977 141.38 36.2063 140.102 33.1152C137.863 27.5662 136.435 21.7232 135.862 15.7666C135.858 15.5586 135.932 15.3566 136.071 15.2014C136.209 15.0462 136.402 14.9494 136.609 14.9306H171.306C171.452 14.9296 171.596 14.9596 171.73 15.0187C171.863 15.0778 171.983 15.1645 172.08 15.2732C172.177 15.3819 172.251 15.5101 172.295 15.6492C172.339 15.7883 172.353 15.9352 172.336 16.0802C171.735 21.9674 170.298 27.7387 168.066 33.2197C166.767 36.2683 164.862 39.0213 162.467 41.3117V41.3117ZM175.337 29.3678C174.896 29.6559 174.368 29.7825 173.844 29.7261H171.843C171.843 29.7261 173.605 23.6646 173.934 22.2612H176.307C177.084 22.2612 177.442 23.2167 177.517 24.2767C177.316 26.1357 176.556 27.8901 175.337 29.3081V29.3678Z" fill="white"/>
<path d="M150.375 6.77883C150.36 6.84775 150.36 6.91893 150.375 6.98785C150.375 7.15207 150.375 7.30137 150.375 7.45067C150.375 7.59997 150.494 7.98815 150.554 8.22703C150.718 8.68986 150.867 9.0631 150.987 9.31691C151.106 9.57072 151.121 9.52593 151.151 9.58565C151.145 9.62026 151.145 9.65555 151.151 9.69016C151.183 9.74317 151.229 9.78562 151.285 9.81218C151.341 9.83874 151.403 9.84823 151.464 9.83946C151.546 9.8216 151.616 9.77225 151.661 9.70227C151.706 9.63228 151.721 9.54738 151.703 9.46621C151.703 9.46621 151.703 9.31691 151.703 9.0631C151.703 8.80929 151.614 8.45098 151.554 8.01801C151.538 7.78937 151.538 7.55987 151.554 7.33123V6.58474C151.599 6.39932 151.675 6.22272 151.778 6.06219C151.897 5.88303 152.092 5.68894 152.301 5.39035C152.418 5.21902 152.523 5.03939 152.614 4.85287C152.614 4.76329 152.614 4.67371 152.704 4.55427C152.716 4.45015 152.716 4.34486 152.704 4.24074C152.701 4.19102 152.701 4.14117 152.704 4.09144V3.80778V3.7182C152.719 3.56431 152.719 3.40926 152.704 3.25537C152.631 2.71961 152.516 2.19043 152.36 1.6728C152.241 1.20997 152.092 0.866583 152.002 0.582915C151.912 0.299247 151.838 0.179808 151.838 0.179808C151.809 0.122581 151.764 0.0751164 151.708 0.0432767C151.652 0.0114371 151.588 -0.00338244 151.524 0.000648822C151.445 0.0151054 151.374 0.0580361 151.325 0.121316C151.275 0.184596 151.25 0.263835 151.255 0.344037C151.255 0.344037 151.255 0.493336 151.255 0.747144C151.255 1.00095 151.255 1.38913 151.375 1.8221C151.494 2.25507 151.464 2.79254 151.509 3.31509V3.7182C151.509 3.7182 151.509 4.01679 151.509 4.04665L151.42 4.30046C151.382 4.40082 151.332 4.4961 151.27 4.58413C151.106 4.76329 150.897 5.0171 150.673 5.3157C150.465 5.66351 150.352 6.05994 150.345 6.4653V6.71911L150.375 6.77883Z" fill="white"/>
<path d="M152.838 6.71911C152.823 6.78803 152.823 6.85921 152.838 6.92813C152.838 7.09235 152.838 7.24165 152.838 7.39095C152.838 7.54025 152.957 7.92843 153.017 8.16731C153.138 8.53951 153.282 8.90356 153.45 9.25719L153.599 9.52593V9.63044C153.628 9.68223 153.672 9.72412 153.726 9.75072C153.779 9.77732 153.839 9.78742 153.898 9.77974C153.939 9.77261 153.979 9.75718 154.014 9.73438C154.05 9.71158 154.08 9.68187 154.104 9.64703C154.128 9.6122 154.144 9.57294 154.152 9.53161C154.16 9.49028 154.16 9.44773 154.151 9.40649V9.40649C154.151 9.40649 154.151 9.25719 154.151 9.00338C154.151 8.74958 154.062 8.39126 153.987 7.95829C153.971 7.72965 153.971 7.50016 153.987 7.27151V6.58474C154.019 6.39523 154.096 6.2161 154.211 6.06219C154.331 5.88303 154.51 5.68894 154.734 5.39035C154.958 5.09175 154.943 5.07682 155.047 4.85287C155.152 4.62892 155.047 4.67371 155.137 4.55427C155.15 4.45015 155.15 4.34486 155.137 4.24074C155.134 4.19102 155.134 4.14117 155.137 4.09144V3.80778V3.7182C155.152 3.56431 155.152 3.40926 155.137 3.25537C155.057 2.7209 154.942 2.19224 154.793 1.6728C154.69 1.30261 154.566 0.938703 154.42 0.582915L154.271 0.179808C154.242 0.122581 154.197 0.0751164 154.141 0.0432767C154.085 0.0114371 154.021 -0.00338244 153.957 0.000648822C153.878 0.0151054 153.807 0.0580361 153.758 0.121316C153.708 0.184596 153.684 0.263835 153.689 0.344037C153.689 0.344037 153.689 0.493336 153.689 0.747144C153.689 1.00095 153.689 1.38913 153.808 1.8221C153.928 2.25507 153.898 2.79254 153.928 3.31509V3.7182C153.928 3.7182 153.928 4.01679 153.928 4.04665L153.838 4.30046C153.8 4.40082 153.75 4.4961 153.689 4.58413C153.524 4.76329 153.315 5.0171 153.091 5.3157C152.879 5.66233 152.76 6.05869 152.748 6.4653V6.62953C152.748 6.62953 152.838 6.68925 152.838 6.71911Z" fill="white"/>
<path d="M155.271 6.71911C155.257 6.78803 155.257 6.85921 155.271 6.92813C155.271 7.09236 155.271 7.24166 155.271 7.39096L155.466 8.16731C155.586 8.53952 155.731 8.90357 155.898 9.2572L156.048 9.52594C156.042 9.56055 156.042 9.59583 156.048 9.63045C156.082 9.68095 156.129 9.72141 156.184 9.74765C156.239 9.77389 156.301 9.78497 156.361 9.77974C156.443 9.76174 156.515 9.71304 156.562 9.64362C156.61 9.57421 156.629 9.48936 156.615 9.4065V9.4065C156.615 9.4065 156.615 9.2572 156.615 9.00339C156.615 8.74958 156.511 8.39126 156.451 7.9583C156.435 7.72965 156.435 7.50016 156.451 7.27152V6.58474C156.483 6.39524 156.56 6.21611 156.675 6.0622C156.794 5.88304 156.973 5.68895 157.197 5.39035C157.31 5.2185 157.409 5.03888 157.496 4.85287C157.542 4.75765 157.577 4.65747 157.6 4.55428C157.613 4.45016 157.613 4.34487 157.6 4.24075C157.598 4.19102 157.598 4.14117 157.6 4.09145V3.80778V3.7182C157.616 3.56431 157.616 3.40926 157.6 3.25538C157.521 2.72091 157.406 2.19225 157.257 1.6728C157.138 1.20998 156.973 0.86659 156.884 0.582922L156.735 0.179814C156.703 0.124868 156.657 0.0793291 156.602 0.0478517C156.547 0.0163743 156.484 8.73065e-05 156.421 0.000655229C156.341 0.0148407 156.268 0.0571933 156.216 0.12012C156.164 0.183046 156.136 0.262432 156.137 0.344043V0.747151C156.137 0.986029 156.137 1.38914 156.257 1.8221C156.376 2.25507 156.346 2.79255 156.376 3.31509V3.7182C156.376 3.7182 156.376 4.0168 156.376 4.04666L156.287 4.30047C156.249 4.40404 156.194 4.5001 156.122 4.58414C155.973 4.7633 155.764 5.0171 155.54 5.3157C155.327 5.66234 155.209 6.05869 155.197 6.4653V6.62953C155.197 6.62953 155.271 6.68925 155.271 6.71911Z" fill="white"/>
<path d="M165.871 27.203H142.297C142.099 27.2017 141.903 27.248 141.727 27.3378C141.55 27.4276 141.398 27.5584 141.282 27.7193C141.167 27.8801 141.092 28.0663 141.063 28.2622C141.034 28.4581 141.053 28.658 141.117 28.8453L141.864 30.8757C144.85 38.3407 148.851 42.0433 154.076 42.0433C159.302 42.0433 163.303 38.4004 166.304 30.8757C166.588 30.2039 166.827 29.5171 167.05 28.8453C167.115 28.658 167.133 28.4581 167.105 28.2622C167.076 28.0663 167.001 27.8801 166.885 27.7193C166.77 27.5584 166.617 27.4276 166.441 27.3378C166.264 27.248 166.069 27.2017 165.871 27.203V27.203Z" fill="white"/>
</svg>
