<svg width="40" height="39" viewBox="0 0 40 39" fill="none" xmlns="http://www.w3.org/2000/svg">
<path fill-rule="evenodd" clip-rule="evenodd" d="M28.0213 15.011V11.9307V11.4702L27.56 11.4718L24.4805 11.4827L24.4922 15.0227L28.0213 15.011Z" fill="#6B350E"/>
<path fill-rule="evenodd" clip-rule="evenodd" d="M19.993 23.1866C22.0206 23.1866 23.6712 21.5375 23.6712 19.51C23.6712 18.71 23.4105 17.9686 22.9735 17.3653C22.307 16.4397 21.2191 15.8318 19.993 15.8318C18.7662 15.8318 17.6806 16.4397 17.0118 17.3653C16.5755 17.9686 16.3164 18.71 16.3164 19.51C16.3164 21.5375 17.9647 23.1866 19.993 23.1866Z" fill="#6B350E"/>
<mask id="mask0_204_237" style="mask-type:luminance" maskUnits="userSpaceOnUse" x="0" y="0" width="40" height="39">
<path fill-rule="evenodd" clip-rule="evenodd" d="M0.871094 0H39.3058V38.4347H0.871094V0Z" fill="white"/>
</mask>
<g mask="url(#mask0_204_237)">
<path fill-rule="evenodd" clip-rule="evenodd" d="M30.4396 17.3654V25.9197C30.4396 28.1455 28.6274 29.9561 26.4016 29.9561H13.583C11.3565 29.9561 9.54588 28.1455 9.54588 25.9197V17.3654V13.1011C9.54588 10.8745 11.3565 9.06392 13.583 9.06392H26.4016C28.6274 9.06392 30.4396 10.8745 30.4396 13.1011V17.3654ZM20.0887 0C9.47486 0 0.870605 8.60269 0.870605 19.2166C0.870605 29.8304 9.47486 38.4347 20.0887 38.4347C30.701 38.4347 39.3053 29.8304 39.3053 19.2166C39.3053 8.60269 30.7002 0 20.0887 0Z" fill="#6B350E"/>
</g>
<path fill-rule="evenodd" clip-rule="evenodd" d="M25.7055 19.5099C25.7055 22.6589 23.1441 25.2226 19.9935 25.2226C16.8429 25.2226 14.2815 22.6589 14.2815 19.5099C14.2815 18.7505 14.4329 18.0286 14.7006 17.3652H11.582V25.9195C11.582 27.0231 12.4803 27.9206 13.5838 27.9206H26.4024C27.5059 27.9206 28.4027 27.0231 28.4027 25.9195V17.3652H25.2825C25.5541 18.0286 25.7055 18.7513 25.7055 19.5099Z" fill="#6B350E"/>
</svg>
