<svg width="39" height="39" viewBox="0 0 39 39" fill="none" xmlns="http://www.w3.org/2000/svg">
<mask id="mask0_204_232" style="mask-type:luminance" maskUnits="userSpaceOnUse" x="0" y="0" width="39" height="39">
<path fill-rule="evenodd" clip-rule="evenodd" d="M0.436035 0H38.8707V38.4347H0.436035" fill="white"/>
</mask>
<g mask="url(#mask0_204_232)">
<path fill-rule="evenodd" clip-rule="evenodd" d="M29.3338 15.3433C29.3448 15.5509 29.3487 15.7592 29.3487 15.97C29.3487 22.3703 24.4764 29.7492 15.5686 29.7492C12.834 29.7492 10.2882 28.9477 8.14513 27.5742C8.52364 27.6187 8.90839 27.6413 9.29939 27.6413C11.5689 27.6413 13.6573 26.8671 15.3142 25.5685C13.1953 25.5287 11.4073 24.1278 10.7908 22.204C11.0858 22.2618 11.3894 22.2899 11.7016 22.2899C12.1441 22.2899 12.571 22.2329 12.9776 22.1213C10.7611 21.6765 9.09258 19.7176 9.09258 17.3732C9.09258 17.3521 9.09258 17.3318 9.09258 17.3107C9.74502 17.6736 10.4919 17.8914 11.2864 17.9171C9.98617 17.047 9.1316 15.5665 9.1316 13.8854C9.1316 12.9981 9.37041 12.1654 9.78716 11.4505C12.1768 14.3802 15.745 16.3087 19.7704 16.51C19.6885 16.1565 19.6448 15.785 19.6448 15.4065C19.6448 12.7327 21.8128 10.5639 24.4881 10.5639C25.8812 10.5639 27.14 11.1524 28.0227 12.0928C29.1262 11.8766 30.1626 11.4723 31.0992 10.9174C30.7355 12.0491 29.9691 12.9981 28.9678 13.5967C29.9488 13.4796 30.8822 13.2189 31.7508 12.8342C31.1031 13.8074 30.2805 14.6604 29.3338 15.3433ZM19.6541 0C9.03951 0 0.436035 8.60581 0.436035 19.2181C0.436035 29.8312 9.03951 38.4347 19.6541 38.4347C30.2672 38.4347 38.8707 29.8312 38.8707 19.2181C38.8707 8.60581 30.2664 0 19.6541 0Z" fill="#6B350E"/>
</g>
</svg>
