<svg width="39" height="39" viewBox="0 0 39 39" fill="none" xmlns="http://www.w3.org/2000/svg">
<mask id="mask0_204_227" style="mask-type:luminance" maskUnits="userSpaceOnUse" x="0" y="0" width="39" height="39">
<path fill-rule="evenodd" clip-rule="evenodd" d="M0 0H38.4362V38.4347H0V0Z" fill="white"/>
</mask>
<g mask="url(#mask0_204_227)">
<path fill-rule="evenodd" clip-rule="evenodd" d="M24.3037 19.138H20.9759V31.0053H16.0436V19.138H13.6976V14.9479H16.0436V12.232C16.0436 10.2887 16.9661 7.25518 21.022 7.25518L24.6744 7.27001V11.34H22.0225C21.5894 11.34 20.9767 11.5554 20.9767 12.4802V14.9487H24.7368L24.3037 19.138ZM19.2176 -0.000488281C8.60376 -0.000488281 -0.000488281 8.6061 -0.000488281 19.2176C-0.000488281 29.8315 8.60376 38.435 19.2176 38.435C29.8315 38.435 38.4357 29.8315 38.4357 19.2176C38.4357 8.6061 29.8307 -0.000488281 19.2176 -0.000488281Z" fill="#6B350E"/>
</g>
</svg>
